# xmcd
#
# Track frame offsets: 
#        150
#        18522
#        41261
#        62338
#        76583
#        101908
#        122946
#        147675
#        163772
#
# Disc length: 2514 seconds
#
# Revision: 0
# Processed by: cddbd v1.5.2PL0 Copyright (c) Steve Scherf et al.
# Submitted via: ExactAudioCopyFreeDBPlugin 1.0
#
DISCID=7309d009
DTITLE=Downpilot - Radio Ghost
DYEAR=2015
DGENRE=Alt. Rock
TTITLE0=Radio Ghost
TTITLE1=Reno
TTITLE2=Day Of The Long Sun
TTITLE3=Rosaline
TTITLE4=Hallowed Ground
TTITLE5=Chutes. Ladders
TTITLE6=My Paper Song
TTITLE7=The Collector
TTITLE8=Suzanne (The Silence)
EXTD=
EXTT0=
EXTT1=
EXTT2=
EXTT3=
EXTT4=
EXTT5=
EXTT6=
EXTT7=
EXTT8=
PLAYORDER=
